<svg xmlns="http://www.w3.org/2000/svg" width="185.006" height="52.48" viewBox="0 0 185.006 52.48">
  <path id="Instagram-Wordmark-White-Logo.wine" d="M9.526.182C5.738,1.767,1.573,6.24.258,11.867-1.41,18.99,5.525,22,6.092,21.017c.667-1.164-1.247-1.555-1.637-5.248-.5-4.776,1.712-10.112,4.507-12.453.521-.428.5.176.5,1.289,0,2.008-.112,19.973-.112,23.724,0,5.077-.208,6.676-.592,8.255-.377,1.605-.988,2.688-.528,3.109.521.465,2.736-.643,4.02-2.435a13.4,13.4,0,0,0,2.177-7.527c.113-3.372.107-8.733.113-11.785,0-2.807.044-11.012-.044-15.952C14.466.786,11.106-.479,9.526.182M184.17,26.837c-.541,0-.8.567-1.007,1.517-.717,3.316-1.472,4.064-2.448,4.064-1.088,0-2.064-1.641-2.321-4.927a110.728,110.728,0,0,1,.088-12.069c.051-.969-.215-1.931-2.82-2.881-1.125-.4-2.756-1.007-3.567.956a48.828,48.828,0,0,0-3.405,11.717c-.005.093-.119.107-.139-.107a92.433,92.433,0,0,1-.471-9.491,2.853,2.853,0,0,0-1.416-2.712c-.761-.477-3.077-1.333-3.915-.32-.717.831-1.553,3.059-2.428,5.7-.705,2.152-1.2,3.612-1.2,3.612s.005-5.8.019-8.005a1.135,1.135,0,0,0-.736-1.157,15.4,15.4,0,0,0-2.945-.6c-.8,0-.988.447-.988,1.095,0,.081-.132,7.632-.132,12.912v.743c-.435,2.429-1.868,5.727-3.423,5.727s-2.291-1.379-2.291-7.671c0-3.669.113-5.267.164-7.923.031-1.529.093-2.705.088-2.976-.013-.812-1.429-1.228-2.084-1.379a6.286,6.286,0,0,0-1.685-.189,1.052,1.052,0,0,0-1.076,1.033v.88a6.028,6.028,0,0,0-3.008-2.435,5.794,5.794,0,0,0-6.671,2.516,15.293,15.293,0,0,0-2.705,7.753,22.756,22.756,0,0,0,.283,7.041c-.553,2.372-1.573,3.348-2.687,3.348-1.624,0-2.793-2.644-2.661-7.219a41.75,41.75,0,0,1,1.352-8.173,2.653,2.653,0,0,0-.521-2.643c-.523-.592-1.643-.9-3.247-.529-1.14.271-2.781.56-4.273.781a9.291,9.291,0,0,0,.164-.995c.384-3.329-3.235-3.059-4.387-1.995a4.077,4.077,0,0,0-1.34,2.731,3.218,3.218,0,0,0,1.46,3.147,32.361,32.361,0,0,1-3.423,8.513,35.986,35.986,0,0,1-2.133,3.348c-.007-.384-.007-.775-.007-1.157-.013-5.507.056-9.841.088-11.4.032-1.529.095-2.675.095-2.945-.013-.592-.359-.824-1.089-1.1a7.873,7.873,0,0,0-2.189-.5c-.988-.075-1.592.453-1.573,1.076v.837a6.088,6.088,0,0,0-3-2.435,5.8,5.8,0,0,0-6.676,2.516,16.723,16.723,0,0,0-2.713,7.721,23.669,23.669,0,0,0,.145,6.633c-.377,1.849-1.453,3.788-2.673,3.788-1.555,0-2.443-1.379-2.443-7.671,0-3.669.113-5.267.171-7.923.031-1.529.088-2.705.081-2.976-.007-.812-1.421-1.228-2.083-1.379a6.3,6.3,0,0,0-1.737-.189,1.123,1.123,0,0,0-1.025.995v.919A6.071,6.071,0,0,0,80.6,11.955c-2.353-.7-4.795-.063-6.664,2.516-1.22,1.681-2.208,3.549-2.717,7.691a27.756,27.756,0,0,0-.2,3.36c-.485,2.969-2.631,6.393-4.38,6.393-1.032,0-2.013-1.989-2.013-6.236,0-5.651.352-13.705.415-14.485,0,0,2.215-.039,2.649-.044,1.1-.007,2.108.019,3.575-.057.743-.037,1.453-2.687.685-3.02a26.449,26.449,0,0,0-3.751-.3c-.817-.019-3.077-.188-3.077-.188s.2-5.343.247-5.9c.037-.479-.567-.717-.919-.863A12.2,12.2,0,0,0,61.943.106C60.691-.151,60.131.1,60.025,1.15c-.164,1.593-.252,6.263-.252,6.263-.919,0-4.033-.184-4.947-.184-.848,0-1.768,3.651-.591,3.695,1.353.051,3.7.1,5.26.144,0,0-.069,8.188-.069,10.711v.78a12.394,12.394,0,0,1-3.876,6.891c.648-2.964-.673-5.185-3.064-7.06-.881-.7-2.617-2.015-4.563-3.443A11.823,11.823,0,0,0,50.05,15.6c.705-1.58.737-3.4-1-3.795a5.192,5.192,0,0,0-5.94,3.7,4.282,4.282,0,0,0,.817,4.373l.245.3c-.641,1.245-1.535,2.925-2.284,4.228-2.095,3.619-3.675,6.476-4.864,6.476-.956,0-.944-2.9-.944-5.62,0-2.341.176-5.871.315-9.52a2.666,2.666,0,0,0-1.572-2.517,7.077,7.077,0,0,0-2.688-1.12c-1.132,0-4.417.151-7.519,9.117-.391,1.133-1.159,3.191-1.159,3.191l.069-10.785a.749.749,0,0,0-.44-.661,7.71,7.71,0,0,0-3.159-.861c-.6,0-.895.277-.895.824l-.1,16.864a24.945,24.945,0,0,0,.157,3.436,3.644,3.644,0,0,0,.585,1.509A1.736,1.736,0,0,0,20.7,35.4c.447.095,2.907.4,3.033-.535a35.173,35.173,0,0,1,1.453-6.889C27.2,20.9,29.821,17.455,31.054,16.227c.22-.213.465-.227.452.127-.056,1.553-.239,5.424-.364,8.715-.333,8.816,1.264,10.445,3.561,10.445,1.749,0,4.216-1.743,6.865-6.147,1.655-2.751,3.253-5.437,4.411-7.381.793.741,1.7,1.541,2.6,2.4,2.1,1.981,2.781,3.869,2.323,5.657-.347,1.371-1.661,2.78-4,1.409-.68-.4-.969-.705-1.655-1.159a1.172,1.172,0,0,0-1.265-.063,4.507,4.507,0,0,0-1.668,2.536c-.271,1.013.743,1.541,1.793,2.007a13.622,13.622,0,0,0,4.077.812c4.827.164,8.691-2.328,11.377-8.747.485,5.544,2.529,8.684,6.085,8.684,2.384,0,4.769-3.077,5.815-6.1a10.669,10.669,0,0,0,1.315,3.216c2.744,4.341,8.067,3.411,10.735-.277a6.953,6.953,0,0,0,.957-1.555,5.037,5.037,0,0,0,4.8,4.707c1.805,0,3.656-.855,4.957-3.788a8.408,8.408,0,0,0,.511.913c2.737,4.341,8.06,3.411,10.735-.277.12-.183.233-.333.327-.479l.083,2.291s-1.529,1.4-2.467,2.259c-4.121,3.783-7.256,6.652-7.488,9.987-.289,4.26,3.159,5.84,5.776,6.047A7.348,7.348,0,0,0,108.313,49c1.284-1.888,2.128-5.947,2.065-9.961-.025-1.611-.064-3.649-.1-5.845a45.312,45.312,0,0,0,4.588-6.292,46.849,46.849,0,0,0,4.284-9.188s1.529.013,3.153-.088c.523-.032.673.076.572.453-.113.459-2.051,7.941-.283,12.925a6.25,6.25,0,0,0,5.563,4.511,5.512,5.512,0,0,0,4.675-3.561c.12.233.24.465.379.68,2.737,4.341,8.041,3.4,10.735-.277a10.721,10.721,0,0,0,.951-1.555,5.224,5.224,0,0,0,4.989,4.72c1.68,0,3.265-.685,4.556-3.732a13.207,13.207,0,0,0,.271,2.781c.081.215.56.479.9.611a6.867,6.867,0,0,0,3.668.176c.4-.081.717-.4.756-1.227.112-2.177.043-5.833.7-8.557a25.222,25.222,0,0,1,2.636-7.2c.272-.492.585-.573.592-.057.019,1.051.076,4.135.509,8.288a18.641,18.641,0,0,0,1.057,5.424,2.979,2.979,0,0,0,2.989,1.705c.592,0,1.825-.164,1.717-1.2a33.053,33.053,0,0,1,1.127-8.123,39.872,39.872,0,0,1,2.335-6.557c.164-.359.233-.081.233-.025-.095,2.02-.3,8.633.521,12.245,1.121,4.9,4.348,5.449,5.475,5.449,2.4,0,4.368-1.825,5.028-6.632.164-1.159-.076-2.052-.787-2.052M83.558,23.867a15.633,15.633,0,0,1-1.421,6.211c-1.448,2.8-4.3,3.681-5.551-.352a21.48,21.48,0,0,1-.22-9.037c.553-3.184,1.957-5.436,4.147-5.229,2.24.221,3.335,3.109,3.045,8.408m21.955.037a17.247,17.247,0,0,1-1.428,6.173c-1.4,2.819-4.336,3.7-5.551-.352a20.281,20.281,0,0,1-.22-8.609c.536-2.932,1.825-5.657,4.148-5.657,2.259,0,3.372,2.48,3.051,8.445m.573,16.385c-.032,4.387-.717,8.225-2.191,9.345-2.1,1.585-4.927.389-4.341-2.807.516-2.832,2.964-5.72,6.539-9.251,0,0,.012.805-.007,2.712m37.907-16.36a15.575,15.575,0,0,1-1.435,6.148c-1.4,2.819-4.311,3.693-5.551-.352a22.881,22.881,0,0,1-.22-8.973c.491-3.135,1.869-5.5,4.147-5.293,2.252.215,3.3,3.109,3.059,8.471" transform="translate(0 0)" fill="#fff"/>
</svg>
